<svg fill="white" id="Outline" height="512" viewBox="0 0 512 512" width="512" xmlns="http://www.w3.org/2000/svg"><path d="m261.833 153.717-2.862-1.145a8 8 0 0 0 -5.943 0l-2.86 1.145a198.847 198.847 0 0 1 -74.168 14.283 8 8 0 0 0 -8 8v74.2a108 108 0 0 0 59.7 96.6l24.721 12.36a8 8 0 0 0 7.156 0l24.723-12.36a108 108 0 0 0 59.7-96.6v-74.2a8 8 0 0 0 -8-8 198.838 198.838 0 0 1 -74.167-14.283zm66.167 96.483a91.5 91.5 0 0 1 -50.856 82.288l-21.144 10.568-21.144-10.572a91.5 91.5 0 0 1 -50.856-82.284v-66.346a214.674 214.674 0 0 0 72-15.238 214.644 214.644 0 0 0 72 15.238z"/><path d="m241.657 246.343-11.314 11.314 20 20a8 8 0 0 0 11.314 0l48-48-11.314-11.314-42.343 42.344z"/><path d="m200 256a56 56 0 0 0 112 0h-16a39.98 39.98 0 1 1 -20.006-34.653l8.012-13.85a56.012 56.012 0 0 0 -84.006 48.503z"/><path d="m400 384v8h-4.686l-13.314-13.317a63.788 63.788 0 0 0 -80.489-7.969l-7.6 5.063-53.319-4.846a37.175 37.175 0 0 0 -39.038 26.487l-15.024-5.008a58.573 58.573 0 0 0 -67.649 23.654 48.512 48.512 0 0 0 -38.726 38.368 8 8 0 0 0 6.348 9.426l168 32a7.98 7.98 0 0 0 3.437-.1l95.045-23.758h47.015v8a8 8 0 0 0 8 8h88v-16h-80v-80h80v-16h-88a8 8 0 0 0 -8 8zm-218.53 23.59 24 8a8.017 8.017 0 0 0 1.313.321l35.934 5.529-27.389 10.271-76.02-15.2a42.6 42.6 0 0 1 42.162-8.921zm170.53 48.41a7.977 7.977 0 0 0 -1.94.239l-94.292 23.573-157.368-29.974a32.6 32.6 0 0 1 26.226-18.454 32.068 32.068 0 0 1 9.8.461l80 16a7.971 7.971 0 0 0 4.378-.355l56.217-21.084 35.758 5.5 2.432-15.814-96.147-14.792a21.282 21.282 0 0 1 22.081-14.437l56.131 5.1a7.979 7.979 0 0 0 5.162-1.311l9.945-6.63a47.79 47.79 0 0 1 60.3 5.971l15.659 15.66a8 8 0 0 0 5.658 2.347h8v48z"/><path d="m112 128v-8h4.686l13.314 13.317a63.788 63.788 0 0 0 80.489 7.969l7.6-5.063 53.319 4.846a37.175 37.175 0 0 0 39.038-26.487l15.025 5.008a58.564 58.564 0 0 0 67.668-23.658 48.512 48.512 0 0 0 38.707-38.364 8 8 0 0 0 -6.348-9.426l-168-32a7.988 7.988 0 0 0 -3.437.1l-95.046 23.758h-47.015v-8a8 8 0 0 0 -8-8h-88v16h80v80h-80v16h88a8 8 0 0 0 8-8zm218.53-23.59-24-8a8.017 8.017 0 0 0 -1.313-.321l-35.934-5.529 27.389-10.271 76.021 15.2a42.6 42.6 0 0 1 -42.163 8.921zm-170.53-48.41a7.977 7.977 0 0 0 1.94-.239l94.292-23.573 157.368 29.974a32.6 32.6 0 0 1 -26.226 18.454 32.07 32.07 0 0 1 -9.8-.461l-80-16a8.018 8.018 0 0 0 -4.378.355l-56.222 21.084-35.758-5.5-2.432 15.814 96.152 14.792a21.282 21.282 0 0 1 -22.081 14.437l-56.131-5.1a7.982 7.982 0 0 0 -5.162 1.311l-9.945 6.63a47.79 47.79 0 0 1 -60.3-5.971l-15.659-15.66a8 8 0 0 0 -5.658-2.347h-8v-48z"/><path d="m432 440h16v16h-16z"/><path d="m64 56h16v16h-16z"/><path d="m144.023 370.286a160.008 160.008 0 0 1 -9.93-217.919l-12.186-10.367a176.008 176.008 0 0 0 10.918 239.716z"/><path d="m390.093 370a176.01 176.01 0 0 0 -16.758-245.185l-10.67 11.922a160.01 160.01 0 0 1 15.242 222.894z"/><path d="m64 368h-16v16h-16v16h16v16h16v-16h16v-16h-16z"/><path d="m32 224h16v-16h16v-16h-16v-16h-16v16h-16v16h16z"/><path d="m40 288h16v16h-16z"/><path d="m432 112v16h16v16h16v-16h16v-16h-16v-16h-16v16z"/><path d="m480 304v-16h-16v16h-16v16h16v16h16v-16h16v-16z"/><path d="m456 208h16v16h-16z"/></svg>
