<svg fill="white" id="Capa_1" enable-background="new 0 0 512 512" height="512" viewBox="0 0 512 512" width="512" xmlns="http://www.w3.org/2000/svg"><g><path d="m496.87 373.241h-48.527v121.691h48.527zm-13.379-228.898c-.964.964-1.956 1.899-3.005 2.778 2.438 1.956 4.649 4.224 6.548 6.747 4.535 5.981 7.427 13.436 8.249 21.43l16.555 160.724c.821 7.965-1.503 15.789-6.378 22.28 3.628.539 6.435 3.657 6.435 7.427v136.715c0 4.138-3.374 7.483-7.512 7.483h-63.552c-4.139 0-7.483-3.345-7.483-7.483v-129.203h-39.939l25.029 93.175c2.522 9.383 1.389 17.689-2.07 24.52-3.911 7.767-10.799 13.408-18.679 16.441-8.73 3.345-18.567 3.515-27.213-.199-9.808-4.195-16.214-12.671-18.936-22.819l-36.735-136.8c-2.892-10.715-.851-21.685 6.264-30.387 7.115-8.646 17.915-13.238 28.998-13.238h63.807l-6.122-59.357c-2.919 4.309-6.18 7.455-10.941 9.723v25.625c0 4.139-3.345 7.483-7.483 7.483h-97.088v215.037c0 4.138-3.344 7.483-7.482 7.483h-57.514c-4.139 0-7.512-3.345-7.512-7.483v-94.281c0-4.138 3.373-7.512 7.512-7.512s7.483 3.374 7.483 7.512v86.768h42.519v-207.524h-42.519v86.769c0 4.167-3.345 7.512-7.483 7.512-4.139 0-7.512-3.345-7.512-7.512v-86.769h-97.057c-4.139 0-7.511-3.345-7.511-7.483v-25.625c-4.734-2.239-7.994-5.414-10.941-9.723l-6.095 59.357h63.778c10.97 0 21.77 4.479 28.913 12.955 7.37 8.759 9.297 19.786 6.378 30.671l-36.736 136.8c-2.722 10.148-9.156 18.624-18.935 22.819-8.674 3.713-18.482 3.544-27.212.199-7.88-3.033-14.769-8.674-18.68-16.441-3.458-6.832-4.592-15.137-2.069-24.52l25.029-93.203h-39.94v129.232c0 4.138-3.373 7.483-7.512 7.483h-63.523c-4.167 0-7.512-3.345-7.512-7.483v-136.717c0-3.77 2.778-6.888 6.406-7.427-4.875-6.491-7.172-14.202-6.35-22.28l9.269-90.17c.425-4.11 4.11-7.115 8.221-6.69 4.11.425 7.086 4.11 6.661 8.221l-5.074 49.266 63.92 6.576 7.993-77.811-20.663-30.359c-2.353-3.43-1.474-8.079 1.956-10.403 3.401-2.324 8.079-1.446 10.403 1.956l34.242 50.287c1.077 1.587 2.522 2.806 4.11 3.657 1.445.765 2.976 1.219 4.507 1.332h72.396c3.146-.028 5.981-1.275 8.022-3.345 2.069-2.069 3.345-4.904 3.345-8.05s-1.275-6.01-3.345-8.079c-2.069-2.041-4.904-3.317-8.05-3.317h-61.625c-2.381-.028-4.734-1.162-6.18-3.288l-38.324-56.239c-1.786-2.608-4.479-4.309-7.625-4.819-6.236 2.778-13.125 4.337-20.381 4.337-6.236 0-12.245-1.162-17.801-3.26-3.799 1.417-7.059 4.025-9.524 7.427-2.722 3.77-4.507 8.476-5.018 13.578l-3.798 36.737c-.425 4.11-4.082 7.115-8.191 6.69-4.11-.425-7.115-4.11-6.69-8.22l3.798-36.737c.794-7.711 3.543-14.939 7.823-20.835 2.013-2.749 4.365-5.216 7.001-7.313-11.253-9.553-17.801-23.471-17.801-38.268v-45.752c0-8.646 3.544-16.498 9.241-22.195 5.669-5.669 13.521-9.213 22.167-9.213h37.615c8.617 0 16.469 3.543 22.167 9.213 5.698 5.697 9.212 13.549 9.212 22.195v45.751c0 13.72-5.612 26.759-15.505 36.227 2.154 1.672 4.081 3.685 5.669 6.009l36.084 52.951h57.684c7.285 0 13.889 2.977 18.651 7.738 4.79 4.791 7.738 11.396 7.738 18.681 0 4.082-.935 7.937-2.579 11.395h68.229c-1.672-3.458-2.607-7.313-2.607-11.395 0-7.285 2.976-13.89 7.738-18.681 4.79-4.762 11.395-7.738 18.68-7.738h57.684l36.057-52.951c1.616-2.353 3.543-4.365 5.697-6.009-.284-.255-.539-.51-.794-.766-9.099-9.099-14.739-21.657-14.739-35.462v-45.75c0-8.646 3.543-16.498 9.213-22.195 5.696-5.669 13.549-9.213 22.194-9.213h37.587c8.645 0 16.497 3.543 22.194 9.213 5.697 5.697 9.213 13.549 9.213 22.195v45.751c.002 13.351-5.299 26.022-14.739 35.461zm-2.182-24.037c-2.522.425-4.933.68-7.228.793-11.593.595-20.352-2.466-26.957-7.795-6.52-5.244-10.629-12.529-13.096-20.551-.68-2.211-1.247-4.507-1.672-6.831-5.159 2.211-11.85 3.912-19.531 3.175v19.786c0 9.666 3.969 18.482 10.347 24.86 6.406 6.378 15.193 10.347 24.859 10.347 9.667 0 18.482-3.969 24.859-10.347 3.741-3.743 6.661-8.335 8.419-13.437zm-68.485-46.262c10.8 1.701 18.737-4.507 20.268-5.811s2.863-2.098 4.961-2.183c4.139-.198 7.625 3.005 7.823 7.115.256 5.187.992 10.431 2.467 15.193 1.643 5.386 4.224 10.12 8.163 13.294 3.855 3.118 9.326 4.876 16.893 4.507 2.948-.142 6.236-.623 9.837-1.474v-41.554c0-4.507-1.843-8.618-4.819-11.594-2.977-2.977-7.086-4.819-11.593-4.819h-37.587c-4.508 0-8.589 1.842-11.565 4.819-2.977 2.976-4.848 7.086-4.848 11.594zm-384.059 30.643c3.6.851 6.86 1.332 9.837 1.474 7.568.369 13.011-1.389 16.894-4.507 3.912-3.175 6.52-7.908 8.164-13.294 1.474-4.762 2.183-10.006 2.438-15.193.198-4.11 3.713-7.313 7.823-7.115 2.154.085 3.459.907 4.989 2.183 1.616 1.389 9.524 7.483 20.239 5.811v-10.915c0-4.507-1.843-8.618-4.819-11.594-2.977-2.977-7.087-4.819-11.565-4.819h-37.616c-4.507 0-8.589 1.842-11.565 4.819-2.977 2.976-4.819 7.086-4.819 11.594zm70.383-15.591c-7.682.737-14.343-.964-19.502-3.175-.454 2.324-.992 4.62-1.701 6.831-2.466 8.022-6.577 15.307-13.096 20.551-6.577 5.329-15.363 8.391-26.957 7.795-2.296-.113-4.706-.369-7.229-.793 1.786 5.102 4.677 9.694 8.447 13.436 6.378 6.378 15.166 10.347 24.831 10.347 9.695 0 18.482-3.969 24.859-10.347 6.378-6.378 10.347-15.194 10.347-24.86v-19.785zm366.656 66.728c-5.527 2.098-11.509 3.26-17.773 3.26-7.257 0-14.145-1.559-20.381-4.337-3.118.482-5.839 2.239-7.625 4.819l-38.295 56.239c-1.389 2.041-3.714 3.26-6.18 3.288h-61.624c-3.146 0-6.01 1.276-8.079 3.317-2.041 2.069-3.316 4.932-3.316 8.079s1.275 5.981 3.316 8.05c2.069 2.069 4.904 3.316 8.022 3.345h72.396c1.559-.113 3.09-.567 4.507-1.332 1.616-.851 3.033-2.069 4.11-3.657l34.27-50.287c2.324-3.402 6.973-4.28 10.402-1.956 3.402 2.325 4.281 6.973 1.956 10.403l-20.692 30.359 8.021 77.811 63.893-6.576-12.331-119.821c-.539-5.244-2.409-10.091-5.329-13.918-2.409-3.203-5.582-5.697-9.268-7.086zm-252.903-95.953c-3.118-2.693-3.486-7.427-.822-10.545 2.693-3.146 7.427-3.515 10.545-.822l34.186 29.169 30.812-17.943c3.57-2.069 8.163-.85 10.232 2.721 2.069 3.572.851 8.136-2.721 10.205l-35.377 20.636c-2.692 1.559-6.15 1.332-8.617-.794zm27.892 89.008c4.025.935 6.548 4.932 5.613 8.958-.907 4.053-4.933 6.548-8.957 5.641-18.312-4.252-34.242-14.627-45.524-28.857-11.084-13.975-17.688-31.606-17.688-50.769 0-22.592 9.155-43.03 23.952-57.827 14.796-14.797 35.234-23.953 57.797-23.953 22.592 0 43.029 9.156 57.826 23.953s23.952 35.234 23.952 57.827c0 19.162-6.633 36.793-17.688 50.769-11.281 14.23-27.24 24.605-45.523 28.857-4.024.907-8.05-1.588-8.985-5.641-.907-4.025 1.616-8.022 5.641-8.958 14.91-3.458 27.921-11.934 37.134-23.585 9.014-11.367 14.428-25.767 14.428-41.442 0-18.454-7.483-35.15-19.559-47.225-12.076-12.076-28.771-19.559-47.225-19.559-18.425 0-35.121 7.483-47.196 19.559-12.076 12.075-19.559 28.771-19.559 47.225 0 15.675 5.386 30.076 14.4 41.442 9.24 11.651 22.251 20.127 37.161 23.585zm-225.691 224.362v121.691h48.557v-121.691c-16.186 0-32.371 0-48.557 0zm21.713-15.024c30.331 0 60.661.028 90.962.028.822-.057 1.672.028 2.494.255 3.997 1.049 6.378 5.159 5.301 9.156l-27.552 102.615c-1.474 5.527-.907 10.233.964 13.918 2.183 4.309 6.095 7.483 10.658 9.241 5.018 1.928 10.998 2.126 15.959-.028 5.641-2.409 8.844-7.171 10.375-12.897l36.736-136.828c1.616-6.038.822-12.274-3.345-17.178-4.252-5.074-10.941-7.54-17.461-7.54h-72.084l-72.112-7.427-2.665 26.022c-.539 5.301 1.757 10.432 5.499 14.117 4.394 4.336 10.148 6.546 16.271 6.546zm386.101-39.316h-.143-.027-.029l-.142.028h-.028-.028-.142-.028-.028-.142v.028h-72.112c-6.604 0-13.18 2.523-17.461 7.71-3.968 4.876-4.932 11.055-3.316 17.008l36.708 136.828c1.559 5.726 4.762 10.488 10.403 12.897 4.96 2.154 10.941 1.956 15.959.028 4.535-1.757 8.476-4.932 10.658-9.241 1.871-3.685 2.438-8.391.935-13.918l-27.553-102.614c-1.247-4.706 2.353-9.439 7.228-9.439h91.812c5.953 0 11.735-2.381 15.987-6.548 3.855-3.77 6.066-8.788 5.528-14.117l-2.693-26.022zm-292.758-62.022v15.534h251.656v-15.534c-83.875 0-167.751 0-251.656 0z"/></g></svg>
