<?xml version="1.0"?>
<svg fill="white" xmlns="http://www.w3.org/2000/svg" viewBox="0 0 512 512" width="512" height="512"><g id="Outline"><path d="M228,136a12,12,0,1,0,12,12A12.013,12.013,0,0,0,228,136Z"/><path d="M300,136a12,12,0,1,0,12,12A12.013,12.013,0,0,0,300,136Z"/><path d="M264,184a8.009,8.009,0,0,1-8-8H240a24,24,0,0,0,48,0H272A8.009,8.009,0,0,1,264,184Z"/><path d="M493.171,305.9a8.011,8.011,0,0,0-6.486-1.788l-72.327,12.055a36.4,36.4,0,0,0-13.4,5.078l-5.513-13.92a53.285,53.285,0,0,0-9.18-15.327l2.087-18.917a138.572,138.572,0,0,0,.844-14.517,130.564,130.564,0,0,0-10.645-51.547,115.553,115.553,0,0,1-9.125-51.1l1.361-27.691c.083-1.745.169-3.55.169-5.341A107.041,107.041,0,0,0,264,16,106.941,106.941,0,0,0,157.21,128.232l1.356,27.6c.08,2.061.154,4.007.154,5.933a114.046,114.046,0,0,1-9.273,45.249,130.724,130.724,0,0,0-9.8,66.118l2.081,18.656a54.31,54.31,0,0,0-6.336,9.162l-10.921-27.3a23.563,23.563,0,1,0-42.952,19.289L83.056,296H67.331a40.2,40.2,0,0,1-17.888-4.223l-7.972-3.986A17.6,17.6,0,0,0,16,303.533v22.578a23.868,23.868,0,0,0,13.267,21.466l13.021,6.511A56.284,56.284,0,0,0,67.331,360H72v23.691L66.253,458.4A34.925,34.925,0,0,0,101.075,496q.888,0,1.766-.045c.51.024,1.019.044,1.526.044a32.2,32.2,0,0,0,30.25-21.151l36.519-67.9A69.974,69.974,0,0,0,184,434.8V496h16V432a8,8,0,0,0-1.854-5.121,54.544,54.544,0,0,1,6.976-76.733l-10.244-12.292A70.515,70.515,0,0,0,184.939,348a8.225,8.225,0,0,0-.827,1l-.018-.01-.142.249c-.036.056-.065.118-.1.175a70.053,70.053,0,0,0-10.4,19.443L136,438.5V341.307L147.368,313a38.344,38.344,0,0,1,8.419-12.912A40.489,40.489,0,0,1,184.48,288h26.771l45.726,83.831a8,8,0,0,0,14.046,0L288,340.707V448a8,8,0,0,0,6.431,7.845L328,462.559V496h16V465.758l30.608,6.113c.2.035,1.127.129,1.392.129h15.135l1.536,2.862A32.409,32.409,0,0,0,423.04,496a30.12,30.12,0,0,0,5.273-.436,32.423,32.423,0,0,0,25.041-20.889l21.276-3.546h0a15.934,15.934,0,0,0,13.333-14.963l1.6-.321A8,8,0,0,0,496,448V312A8,8,0,0,0,493.171,305.9Zm-264.6-19.555A19.216,19.216,0,0,0,240,268.8V244.317a80.039,80.039,0,0,0,48,0V268.8a19.216,19.216,0,0,0,11.428,17.541L289.8,304H238.2ZM264,232a64.072,64.072,0,0,1-64-64V132.184a116.869,116.869,0,0,0,34.624-39.637A207.224,207.224,0,0,0,328,134.82V168A64.072,64.072,0,0,1,264,232Zm108.115,68.225.148.152a37.073,37.073,0,0,1,8.3,12.81L384,321.864a36.387,36.387,0,0,0-14.357-5.7l-62.567-10.428L316.749,288H343.44A39.635,39.635,0,0,1,372.115,300.225ZM376.792,344l-36.4-7.279-36.4-7.28v-8l63.012,10.5A20.263,20.263,0,0,1,382.376,344Zm40.2-12.054L480,321.443v8l-37.627,7.526L407.208,344h-5.584A20.263,20.263,0,0,1,416.989,331.946ZM49.443,339.777l-13.021-6.51A7.958,7.958,0,0,1,32,326.111V303.533a1.534,1.534,0,0,1,.759-1.361,1.526,1.526,0,0,1,1.556-.07l7.973,3.986A56.284,56.284,0,0,0,67.331,312H96a8,8,0,0,0,7.155-11.578l-7.323-14.648a7.56,7.56,0,0,1,4.929-10.717h0a7.589,7.589,0,0,1,8.855,4.527L120,305.541V344H67.331A40.2,40.2,0,0,1,49.443,339.777ZM120,360v16H88V360ZM82.207,459.624,87.408,392H120v69.075a18.936,18.936,0,0,1-17.555,18.856,8.169,8.169,0,0,0-.9.045c-.158,0-.311.024-.47.024a18.922,18.922,0,0,1-18.868-20.376ZM184.128,349.01a8,8,0,0,1,.509-.618c-.164.209-.323.421-.485.631Zm-27.662-69.452-.917-8.221a114.7,114.7,0,0,1,8.6-58.021A129.949,129.949,0,0,0,174.72,161.76c0-2.235-.084-4.427-.17-6.633l-1.36-27.684a90.941,90.941,0,1,1,181.77-4.563c0,1.41-.073,2.949-.15,4.567l-1.359,27.662A131.612,131.612,0,0,0,363.843,213.3,114.657,114.657,0,0,1,373.2,258.56a122.558,122.558,0,0,1-.752,12.8l-.909,8.244A55.951,55.951,0,0,0,343.44,272H307.2a3.243,3.243,0,0,1-3.2-3.2V237.237A80.026,80.026,0,0,0,344,168V128a8,8,0,0,0-6.869-7.92,191.273,191.273,0,0,1-95.466-42.439l-4.543-3.787a8,8,0,0,0-12.277,2.568l-3.1,6.2a100.785,100.785,0,0,1-34.182,38.721A8,8,0,0,0,184,128v40a80.026,80.026,0,0,0,40,69.237V268.8a3.243,3.243,0,0,1-3.2,3.2H184.48A56.358,56.358,0,0,0,156.466,279.558ZM264,351.293,246.931,320h34.138Zm40-5.534,64,12.8v95.682l-64-12.8ZM384,360h16v96H384Zm41.568,119.8a14.308,14.308,0,0,1-2.528.2,16.39,16.39,0,0,1-14.1-8.061c.151-.017.3-.042.449-.068.059-.011.118-.015.177-.026l.013,0,.055-.011,16.445-3.289a15.791,15.791,0,0,0,8.056,7.015A16.678,16.678,0,0,1,425.568,479.8ZM472,455.346h0l-32,5.334V430.945a2.408,2.408,0,0,1,2.017-2.381l27.173-4.529A2.621,2.621,0,0,1,469.6,424a2.416,2.416,0,0,1,2.4,2.416l.006,28.928Zm-5.442-47.093-27.172,4.528A18.357,18.357,0,0,0,424,430.945v21.7l-8,1.6V358.559l64-12.8v65.479A18.361,18.361,0,0,0,466.559,408.253Z"/></g></svg>
